<svg width="48" height="48" viewBox="0 0 300 300" fill="none" xmlns="http://www.w3.org/2000/svg">
<circle cx="150" cy="150" r="150" fill="url(#paint0_radial_3639_36)" fill-opacity="0.49"/>
<path opacity="0.15" d="M149.997 268.423C209.313 268.423 257.399 264.965 257.399 260.7C257.399 256.434 209.313 252.977 149.997 252.977C90.6796 252.977 42.5938 256.434 42.5938 260.7C42.5938 264.965 90.6796 268.423 149.997 268.423Z" fill="#45413C"/>
<path d="M249.134 234.958C249.134 240.42 246.812 245.658 242.681 249.521C238.549 253.383 232.945 255.553 227.102 255.553H72.8829C67.0398 255.553 61.4361 253.383 57.3044 249.521C53.1727 245.658 50.8516 240.42 50.8516 234.958V165.449C50.8516 140.87 61.2967 117.297 79.8893 99.9162C98.4818 82.5357 123.699 72.7715 149.993 72.7715C176.286 72.7715 201.503 82.5357 220.096 99.9162C238.688 117.297 249.134 140.87 249.134 165.449V234.958Z" fill="#DAEDF7"/>
<path d="M149.993 72.7715C123.699 72.7715 98.4818 82.5357 79.8893 99.9162C61.2967 117.297 50.8516 140.87 50.8516 165.449V191.193C50.8516 166.613 61.2967 143.04 79.8893 125.66C98.4818 108.28 123.699 98.5153 149.993 98.5153C176.286 98.5153 201.503 108.28 220.096 125.66C238.688 143.04 249.134 166.613 249.134 191.193V165.449C249.134 140.87 238.688 117.297 220.096 99.9162C201.503 82.5357 176.286 72.7715 149.993 72.7715Z" fill="white"/>
<path d="M249.134 234.958C249.134 240.42 246.812 245.658 242.681 249.521C238.549 253.383 232.945 255.553 227.102 255.553H72.8829C67.0398 255.553 61.4361 253.383 57.3044 249.521C53.1727 245.658 50.8516 240.42 50.8516 234.958V165.449C50.8516 140.87 61.2967 117.297 79.8893 99.9162C98.4818 82.5357 123.699 72.7715 149.993 72.7715C176.286 72.7715 201.503 82.5357 220.096 99.9162C238.688 117.297 249.134 140.87 249.134 165.449V234.958Z" stroke="#45413C" stroke-linecap="round" stroke-linejoin="round"/>
<path d="M174.783 201.484H125.213C119.129 201.484 114.197 206.095 114.197 211.782V252.972C114.197 258.659 119.129 263.27 125.213 263.27H174.783C180.867 263.27 185.799 258.659 185.799 252.972V211.782C185.799 206.095 180.867 201.484 174.783 201.484Z" fill="#C0DCEB"/>
<path d="M185.799 224.66H114.197V234.958H185.799V224.66Z" fill="#ADC4D9"/>
<path d="M268.422 211.373C268.426 212.28 268.173 213.172 267.69 213.959C267.206 214.745 266.509 215.398 265.668 215.852L249.145 224.656V160.297L265.668 169.101C266.509 169.555 267.206 170.208 267.69 170.995C268.173 171.781 268.426 172.673 268.422 173.581V211.373Z" fill="#ADC4D9" stroke="#45413C" stroke-linecap="round" stroke-linejoin="round"/>
<path d="M31.5801 211.373C31.5763 212.28 31.8289 213.172 32.3125 213.959C32.7961 214.745 33.4935 215.398 34.334 215.852L50.8575 224.656V160.297L34.334 169.101C33.4935 169.555 32.7961 170.208 32.3125 170.995C31.8289 171.781 31.5763 172.673 31.5801 173.581V211.373Z" fill="#ADC4D9" stroke="#45413C" stroke-linecap="round" stroke-linejoin="round"/>
<path d="M149.998 72.7643C152.984 61.1242 160.672 51.0158 171.453 44.5565C182.233 38.0972 195.269 35.7882 207.83 38.1131" stroke="#45413C" stroke-linecap="round" stroke-linejoin="round"/>
<path d="M216.092 57.3239C223.697 57.3239 229.861 51.561 229.861 44.452C229.861 37.343 223.697 31.5801 216.092 31.5801C208.487 31.5801 202.322 37.343 202.322 44.452C202.322 51.561 208.487 57.3239 216.092 57.3239Z" fill="#FF6242" stroke="#45413C" stroke-linecap="round" stroke-linejoin="round"/>
<path d="M174.783 201.484H125.213C119.129 201.484 114.197 206.095 114.197 211.782V252.972C114.197 258.659 119.129 263.27 125.213 263.27H174.783C180.867 263.27 185.799 258.659 185.799 252.972V211.782C185.799 206.095 180.867 201.484 174.783 201.484Z" stroke="#45413C" stroke-linecap="round" stroke-linejoin="round"/>
<path d="M125.213 201.484H174.783C177.705 201.484 180.507 202.569 182.573 204.5C184.639 206.432 185.799 209.051 185.799 211.782V224.654H114.197V211.782C114.197 209.051 115.358 206.432 117.424 204.5C119.49 202.569 122.291 201.484 125.213 201.484Z" fill="#FF6242" stroke="#45413C" stroke-linecap="round" stroke-linejoin="round"/>
<path d="M202.323 86.7187C186.615 77.5949 168.491 72.7598 149.998 72.7598C131.505 72.7598 113.381 77.5949 97.6738 86.7187V149.997H202.323V86.7187Z" stroke="#45413C" stroke-linecap="round" stroke-linejoin="round"/>
<path d="M196.809 180.902C212.018 180.902 224.348 169.376 224.348 155.158C224.348 140.94 212.018 129.414 196.809 129.414C181.599 129.414 169.27 140.94 169.27 155.158C169.27 169.376 181.599 180.902 196.809 180.902Z" fill="#00DFEB" stroke="#45413C" stroke-linecap="round" stroke-linejoin="round"/>
<path d="M196.814 165.443C202.898 165.443 207.83 160.832 207.83 155.145C207.83 149.458 202.898 144.848 196.814 144.848C190.731 144.848 185.799 149.458 185.799 155.145C185.799 160.832 190.731 165.443 196.814 165.443Z" fill="#627B8C" stroke="#45413C" stroke-linecap="round" stroke-linejoin="round"/>
<path d="M103.18 180.902C118.389 180.902 130.719 169.376 130.719 155.158C130.719 140.94 118.389 129.414 103.18 129.414C87.9703 129.414 75.6406 140.94 75.6406 155.158C75.6406 169.376 87.9703 180.902 103.18 180.902Z" fill="#00DFEB" stroke="#45413C" stroke-linecap="round" stroke-linejoin="round"/>
<path d="M103.184 165.443C109.267 165.443 114.199 160.832 114.199 155.145C114.199 149.458 109.267 144.848 103.184 144.848C97.0999 144.848 92.168 149.458 92.168 155.145C92.168 160.832 97.0999 165.443 103.184 165.443Z" fill="#627B8C" stroke="#45413C" stroke-linecap="round" stroke-linejoin="round"/>
<defs>
<radialGradient id="paint0_radial_3639_36" cx="0" cy="0" r="1" gradientUnits="userSpaceOnUse" gradientTransform="translate(150 150) rotate(90) scale(150)">
<stop stop-color="#07FF6A"/>
<stop offset="0.6" stop-color="#06FE69"/>
<stop offset="1" stop-color="#026F2E"/>
</radialGradient>
</defs>
</svg>
